
<svg width="120" height="40" viewBox="0 0 120 40" fill="none" xmlns="http://www.w3.org/2000/svg">
  <path d="M10 20C10 14.4772 14.4772 10 20 10H100C105.523 10 110 14.4772 110 20V20C110 25.5228 105.523 30 100 30H20C14.4772 30 10 25.5228 10 20V20Z" fill="#E5E7EB"/>
  <path d="M30.352 24V15.6H32.368L35.968 21.312V15.6H38V24H36L32.352 18.144V24H30.352ZM43.3956 18.448C42.1636 18.448 41.5476 19.144 41.5476 20.536C41.5476 21.944 42.1636 22.648 43.3956 22.648C44.6356 22.648 45.2516 21.944 45.2516 20.536C45.2516 19.144 44.6356 18.448 43.3956 18.448ZM43.3956 16.936C45.9716 16.936 47.2596 18.472 47.2596 20.536C47.2596 22.608 45.9716 24.144 43.3956 24.144C40.8196 24.144 39.5396 22.608 39.5396 20.536C39.5396 18.472 40.8196 16.936 43.3956 16.936ZM54.8933 19.168V20.616H50.3493V19.168H54.8933ZM62.5552 24V15.6H64.5712V22.48H68.7072V24H62.5552Z" fill="#374151"/>
</svg>
