
<svg width="120" height="40" viewBox="0 0 120 40" fill="none" xmlns="http://www.w3.org/2000/svg">
  <path d="M10 20C10 14.4772 14.4772 10 20 10H100C105.523 10 110 14.4772 110 20V20C110 25.5228 105.523 30 100 30H20C14.4772 30 10 25.5228 10 20V20Z" fill="#E5E7EB"/>
  <path d="M35.4399 21.488H32.5279L31.9919 23H29.9279L32.9919 15.6H35.0079L38.0719 23H35.9759L35.4399 21.488ZM34.8719 19.968L33.9839 17.536L33.0959 19.968H34.8719ZM43.2877 16.8C44.6477 16.8 45.4797 17.376 45.9197 18.512L44.1117 19.16C43.9037 18.592 43.4877 18.304 42.9197 18.304C42.1357 18.304 41.7437 18.76 41.7437 19.68V19.92C41.7437 20.864 42.1357 21.336 42.9277 21.336C43.5197 21.336 43.9677 21 44.1757 20.352L45.9517 21.032C45.5517 22.2 44.6637 22.84 42.9437 22.84C40.9037 22.84 39.8797 21.8 39.8797 19.728V19.632C39.8797 17.752 40.9117 16.8 43.2877 16.8ZM51.9044 17.016V18.544H49.5124V19.704H51.5844V21.144H49.5124V23H47.5124V17.016H51.9044ZM59.3723 22.68V23H55.0163V22.848C55.3203 22.528 55.9283 22.008 56.6003 21.392C57.2803 20.776 57.8403 20.256 58.2803 19.832C58.9283 19.192 59.2563 18.712 59.2563 18.328C59.2563 17.976 58.9443 17.76 58.3283 17.76C57.6883 17.76 57.3363 18.072 57.2643 18.704L55.4243 18.256C55.7123 17.104 56.6963 16.528 58.4203 16.528C59.4123 16.528 60.0723 16.712 60.4483 17.08C60.8243 17.448 61.0123 17.952 61.0123 18.592C61.0123 19.536 60.4723 20.4 59.3923 21.184L58.7843 21.704L59.3723 22.68ZM68.2052 19.168V20.616H63.6612V19.168H68.2052ZM74.2831 17.016H76.2751V23H74.2831V17.016ZM74.2831 15.6H76.2751V16.736H74.2831V15.6Z" fill="#374151"/>
</svg>
