
<svg width="120" height="40" viewBox="0 0 120 40" fill="none" xmlns="http://www.w3.org/2000/svg">
  <path d="M10 20C10 14.4772 14.4772 10 20 10H100C105.523 10 110 14.4772 110 20V20C110 25.5228 105.523 30 100 30H20C14.4772 30 10 25.5228 10 20V20Z" fill="#E5E7EB"/>
  <path d="M33.92 15.6H35.92V18.328H38.64V15.6H40.64V23H38.64V19.848H35.92V23H33.92V15.6ZM47.4294 21.488H44.5174L43.9814 23H41.9174L44.9814 15.6H46.9974L50.0614 23H47.9654L47.4294 21.488ZM46.8614 19.968L45.9734 17.536L45.0854 19.968H46.8614ZM56.8773 21.488H53.9653L53.4293 23H51.3653L54.4293 15.6H56.4453L59.5093 23H57.4133L56.8773 21.488ZM56.3093 19.968L55.4213 17.536L54.5333 19.968H56.3093ZM65.3252 15.6H67.3252V23H65.3252V15.6ZM74.7869 17.016V18.544H72.3949V19.704H74.4669V21.144H72.3949V23H70.3949V17.016H74.7869Z" fill="#374151"/>
</svg>
