
<svg width="120" height="40" viewBox="0 0 120 40" fill="none" xmlns="http://www.w3.org/2000/svg">
  <path d="M10 20C10 14.4772 14.4772 10 20 10H100C105.523 10 110 14.4772 110 20V20C110 25.5228 105.523 30 100 30H20C14.4772 30 10 25.5228 10 20V20Z" fill="#E5E7EB"/>
  <path d="M25.648 19.304C25.648 18.152 26.104 17.272 27.016 16.664C27.928 16.056 29.12 15.752 30.592 15.752C32.064 15.752 33.256 16.056 34.168 16.664C35.08 17.272 35.536 18.152 35.536 19.304V19.64C35.536 20.792 35.08 21.672 34.168 22.28C33.256 22.888 32.064 23.192 30.592 23.192C29.12 23.192 27.928 22.888 27.016 22.28C26.104 21.672 25.648 20.792 25.648 19.64V19.304ZM33.568 19.304C33.568 18.696 33.328 18.232 32.848 17.912C32.368 17.592 31.616 17.432 30.592 17.432C29.568 17.432 28.816 17.592 28.336 17.912C27.856 18.232 27.616 18.696 27.616 19.304V19.64C27.616 20.248 27.856 20.712 28.336 21.032C28.816 21.352 29.568 21.512 30.592 21.512C31.616 21.512 32.368 21.352 32.848 21.032C33.328 20.712 33.568 20.248 33.568 19.64V19.304ZM42.8828 15.752C44.3388 15.752 45.3468 16.112 45.9068 16.832L44.3388 18.184C44.0348 17.784 43.4908 17.584 42.7068 17.584C42.0188 17.584 41.4428 17.744 40.9788 18.064C40.5148 18.384 40.2828 18.824 40.2828 19.384V19.56C40.2828 20.12 40.5148 20.56 40.9788 20.88C41.4428 21.2 42.0188 21.36 42.7068 21.36C43.4908 21.36 44.0348 21.16 44.3388 20.76L45.9068 22.112C45.3468 22.832 44.3388 23.192 42.8828 23.192C41.5068 23.192 40.3948 22.888 39.5468 22.28C38.6988 21.672 38.2748 20.792 38.2748 19.64V19.304C38.2748 18.152 38.6988 17.272 39.5468 16.664C40.3948 16.056 41.5068 15.752 42.8828 15.752ZM53.4326 15.752C54.9046 15.752 55.9366 16.112 56.5286 16.832L54.9606 18.184C54.6566 17.784 54.1126 17.584 53.3286 17.584C52.6406 17.584 52.0646 17.744 51.6006 18.064C51.1366 18.384 50.9046 18.824 50.9046 19.384V19.56C50.9046 20.12 51.1366 20.56 51.6006 20.88C52.0646 21.2 52.6406 21.36 53.3286 21.36C54.1126 21.36 54.6566 21.16 54.9606 20.76L56.5286 22.112C55.9686 22.832 54.9606 23.192 53.5046 23.192C52.1286 23.192 51.0166 22.888 50.1686 22.28C49.3206 21.672 48.8966 20.792 48.8966 19.64V19.304C48.8966 18.152 49.3206 17.272 50.1686 16.664C51.0166 16.056 52.1046 15.752 53.4326 15.752ZM58.0624 15.944H60.0464V18.376C60.0464 18.92 60.1984 19.336 60.5024 19.624C60.8064 19.912 61.2384 20.056 61.7984 20.056C62.3584 20.056 62.7904 19.912 63.0944 19.624C63.3984 19.336 63.5504 18.92 63.5504 18.376V15.944H65.5344V18.376C65.5344 19.592 65.1504 20.536 64.3824 21.208C63.6144 21.88 62.5904 22.216 61.3264 22.216C60.0464 22.216 59.0464 21.896 58.3264 21.256C57.6064 20.616 57.2464 19.688 57.2464 18.472V15.944H58.0624ZM66.5842 15.944H68.5682V18.376C68.5682 18.92 68.7202 19.336 69.0242 19.624C69.3282 19.912 69.7602 20.056 70.3202 20.056C70.8802 20.056 71.3122 19.912 71.6162 19.624C71.9202 19.336 72.0722 18.92 72.0722 18.376V15.944H74.0562V18.376C74.0562 19.592 73.6722 20.536 72.9042 21.208C72.1362 21.88 71.1122 22.216 69.8482 22.216C68.5682 22.216 67.5682 21.896 66.8482 21.256C66.1282 20.616 65.7682 19.688 65.7682 18.472V15.944H66.5842Z" fill="#374151"/>
</svg>
